<svg width="156" height="39" viewBox="0 0 156 39" fill="none" xmlns="http://www.w3.org/2000/svg">
<g clip-path="url(#clip0_4_282)">
<path fill-rule="evenodd" clip-rule="evenodd" d="M27.5473 36.1399C27.5 36.1091 27.4449 36.0927 27.3887 36.0927C27.3325 36.0927 27.2774 36.1091 27.2301 36.1399L26.7507 36.4228L26.2711 36.7057C26.2217 36.7318 26.1805 36.7713 26.1518 36.8199C26.1231 36.8684 26.1082 36.9241 26.1087 36.9807V38.1124C26.109 38.1688 26.1243 38.2241 26.1529 38.2725C26.1815 38.3209 26.2222 38.3606 26.2711 38.3874L26.7507 38.6703L27.2301 38.9532C27.278 38.9823 27.3329 38.9977 27.3887 38.9977C27.4445 38.9977 27.4993 38.9823 27.5473 38.9532L28.0267 38.6703L28.514 38.3874C28.5604 38.3584 28.5987 38.3181 28.6258 38.27C28.6528 38.2219 28.6676 38.1677 28.6686 38.1124V36.9807C28.6691 36.9251 28.655 36.8703 28.6278 36.8219C28.6007 36.7736 28.5614 36.7335 28.514 36.7057L28.0267 36.4228L27.5473 36.1399Z" fill="#4F4F4F"/>
<path fill-rule="evenodd" clip-rule="evenodd" d="M29.7822 32.2497C29.6647 32.1807 29.5313 32.1444 29.3955 32.1444C29.2598 32.1444 29.1264 32.1807 29.0089 32.2497L28.4443 32.5797L27.8875 32.9098C27.7643 32.9783 27.6617 33.0796 27.5909 33.2028C27.52 33.326 27.4836 33.4665 27.4854 33.6092V34.9294C27.4836 35.0721 27.52 35.2127 27.5909 35.3359C27.6617 35.4591 27.7643 35.5604 27.8875 35.6289L28.4443 35.9589L29.0089 36.289C29.1264 36.358 29.2598 36.3943 29.3955 36.3943C29.5313 36.3943 29.6647 36.358 29.7822 36.289L30.3468 35.9589L30.9036 35.6289C31.0268 35.5604 31.1293 35.4591 31.2002 35.3359C31.271 35.2127 31.3075 35.0721 31.3057 34.9294V33.6092C31.3075 33.4665 31.271 33.326 31.2002 33.2028C31.1293 33.0796 31.0268 32.9783 30.9036 32.9098L30.3468 32.5797L29.7822 32.2497Z" fill="#4F4F4F"/>
<path fill-rule="evenodd" clip-rule="evenodd" d="M24.9256 10.6074C24.808 10.5385 24.6747 10.5022 24.5389 10.5022C24.4031 10.5022 24.2698 10.5385 24.1522 10.6074L23.0231 11.2675L21.8863 11.9355C21.7631 12.004 21.6605 12.1053 21.5897 12.2285C21.5188 12.3517 21.4824 12.4922 21.4841 12.6349V15.299C21.4824 15.4417 21.5188 15.5822 21.5897 15.7054C21.6605 15.8286 21.7631 15.9299 21.8863 15.9984L23.0231 16.6664L24.1522 17.3344C24.2698 17.4033 24.4031 17.4396 24.5389 17.4396C24.6747 17.4396 24.808 17.4033 24.9256 17.3344L26.0624 16.6664L27.1992 15.9984C27.321 15.9289 27.4221 15.8271 27.4915 15.704C27.5609 15.5808 27.5962 15.4409 27.5937 15.299V12.6349C27.5962 12.493 27.5609 12.3531 27.4915 12.2299C27.4221 12.1068 27.321 12.0051 27.1992 11.9355L26.0624 11.2675L24.9256 10.6074Z" fill="#4F4F4F"/>
<path fill-rule="evenodd" clip-rule="evenodd" d="M25.1496 18.4423C25.0321 18.3734 24.8987 18.3371 24.763 18.3371C24.6272 18.3371 24.4938 18.3734 24.3763 18.4423L23.2395 19.1103L22.1026 19.7783C21.9809 19.8478 21.8798 19.9496 21.8104 20.0727C21.7409 20.1959 21.7057 20.3358 21.7082 20.4777V23.1417C21.7057 23.2837 21.7409 23.4236 21.8104 23.5468C21.8798 23.6699 21.9809 23.7716 22.1026 23.8412L23.2395 24.5013L24.3763 25.1693C24.4938 25.2382 24.6272 25.2745 24.763 25.2745C24.8987 25.2745 25.0321 25.2382 25.1496 25.1693L26.2865 24.5013L27.4233 23.8412C27.5465 23.7727 27.6491 23.6714 27.7199 23.5482C27.7908 23.425 27.8272 23.2844 27.8255 23.1417V20.4777C27.8272 20.335 27.7908 20.1945 27.7199 20.0713C27.6491 19.9481 27.5465 19.8468 27.4233 19.7783L26.2865 19.1103L25.1496 18.4423Z" fill="#4F4F4F"/>
<path fill-rule="evenodd" clip-rule="evenodd" d="M19.2105 21.319C19.0929 21.2501 18.9596 21.2137 18.8238 21.2137C18.6881 21.2137 18.5547 21.2501 18.4371 21.319L17.8726 21.6491L17.3158 21.9791C17.1926 22.0476 17.09 22.1489 17.0192 22.2722C16.9483 22.3954 16.9118 22.5359 16.9136 22.6786V23.9988C16.9157 24.1398 16.953 24.2779 17.022 24.4002C17.091 24.5225 17.1894 24.6251 17.308 24.6982L17.8726 25.0283L18.4371 25.3583C18.5547 25.4273 18.6881 25.4636 18.8238 25.4636C18.9596 25.4636 19.0929 25.4273 19.2105 25.3583L19.7673 25.0283L20.3318 24.6982C20.4536 24.6287 20.5545 24.5269 20.6239 24.4038C20.6934 24.2807 20.7288 24.1407 20.7263 23.9988V22.6786C20.7288 22.5367 20.6934 22.3967 20.6239 22.2735C20.5545 22.1504 20.4536 22.0487 20.3318 21.9791L19.7673 21.6491L19.2105 21.319Z" fill="#4F4F4F"/>
<path fill-rule="evenodd" clip-rule="evenodd" d="M30.571 13.1615C30.4535 13.0925 30.3201 13.0562 30.1844 13.0562C30.0486 13.0562 29.9152 13.0925 29.7977 13.1615L29.2409 13.4915L28.6763 13.8216C28.5546 13.8911 28.4535 13.9928 28.3841 14.116C28.3146 14.2391 28.2794 14.3791 28.2819 14.521V15.8412C28.2808 15.9818 28.3168 16.1201 28.3861 16.2418C28.4555 16.3634 28.5557 16.4639 28.6763 16.5328L29.2409 16.8707L29.7977 17.2007C29.9152 17.2697 30.0486 17.306 30.1844 17.306C30.3201 17.306 30.4535 17.2697 30.571 17.2007L31.1356 16.8707L31.7001 16.5328C31.8207 16.4639 31.9209 16.3634 31.9903 16.2418C32.0597 16.1201 32.0957 15.9818 32.0945 15.8412V14.521C32.0971 14.3791 32.0618 14.2391 31.9924 14.116C31.9229 13.9928 31.8219 13.8911 31.7001 13.8216L31.1356 13.4915L30.571 13.1615Z" fill="#4F4F4F"/>
<path fill-rule="evenodd" clip-rule="evenodd" d="M28.9546 7.91964C28.8371 7.85067 28.7037 7.81436 28.568 7.81436C28.4322 7.81436 28.2989 7.85067 28.1813 7.91964L27.6167 8.24974L27.0599 8.57978C26.9367 8.64827 26.8342 8.74953 26.7633 8.87275C26.6925 8.99597 26.656 9.13651 26.6578 9.27921V10.5994C26.656 10.7421 26.6925 10.8826 26.7633 11.0058C26.8342 11.1291 26.9367 11.2304 27.0599 11.2989L27.6167 11.6289L28.1813 11.9589C28.2989 12.0279 28.4322 12.0642 28.568 12.0642C28.7037 12.0642 28.8371 12.0279 28.9546 11.9589L29.5192 11.6289L30.0762 11.2989C30.1994 11.2304 30.3018 11.1291 30.3726 11.0058C30.4435 10.8826 30.4799 10.7421 30.4782 10.5994V9.27921C30.4799 9.13651 30.4435 8.99597 30.3726 8.87275C30.3018 8.74953 30.1994 8.64827 30.0762 8.57978L29.5192 8.24974L28.9546 7.91964Z" fill="#4F4F4F"/>
<path fill-rule="evenodd" clip-rule="evenodd" d="M38.9234 9.02734C38.8059 8.95837 38.6725 8.92206 38.5367 8.92206C38.401 8.92206 38.2676 8.95837 38.1501 9.02734L37.5933 9.35739L37.0287 9.68743C36.907 9.75695 36.8059 9.8587 36.7364 9.98184C36.667 10.105 36.6318 10.2449 36.6343 10.3869V11.7071C36.6318 11.849 36.667 11.989 36.7364 12.1121C36.8059 12.2352 36.907 12.337 37.0287 12.4065L37.5933 12.7366L38.1578 13.0666C38.2754 13.1356 38.4087 13.1719 38.5445 13.1719C38.6802 13.1719 38.8136 13.1356 38.9312 13.0666L39.4957 12.7366L40.0602 12.4065C40.182 12.337 40.2829 12.2352 40.3523 12.1121C40.4218 11.989 40.4572 11.849 40.4547 11.7071V10.3869C40.4525 10.2459 40.4153 10.1078 40.3463 9.98544C40.2773 9.86311 40.1789 9.76057 40.0602 9.68743L39.4957 9.35739L38.9234 9.02734Z" fill="#4F4F4F"/>
<path fill-rule="evenodd" clip-rule="evenodd" d="M27.7714 4.64318C27.724 4.61237 27.6692 4.59598 27.613 4.59598C27.5568 4.59598 27.5017 4.61237 27.4544 4.64318L26.975 4.9182L26.4954 5.20115C26.4464 5.22987 26.4057 5.27106 26.3772 5.32068C26.3487 5.37029 26.3335 5.42661 26.333 5.48405V6.60781C26.3327 6.66541 26.3477 6.72205 26.3762 6.7718C26.4048 6.82156 26.4459 6.86261 26.4954 6.89071L26.975 7.17365L27.4544 7.45655C27.503 7.48337 27.5576 7.49741 27.613 7.49741C27.6683 7.49741 27.7227 7.48337 27.7714 7.45655L28.2587 7.17365L28.7381 6.89071C28.7856 6.86102 28.8248 6.81939 28.8519 6.76984C28.879 6.72029 28.8932 6.66449 28.8929 6.60781V5.48405C28.8925 5.4275 28.878 5.37197 28.851 5.32255C28.824 5.27312 28.7851 5.23139 28.7381 5.20115L28.2587 4.9182L27.7714 4.64318Z" fill="#4F4F4F"/>
<path fill-rule="evenodd" clip-rule="evenodd" d="M26.0546 30.8902C26.006 30.8634 25.9516 30.8493 25.8962 30.8493C25.8409 30.8493 25.7863 30.8634 25.7376 30.8902L25.4514 31.0552L25.1653 31.2202C25.1183 31.2505 25.0795 31.2922 25.0524 31.3416C25.0254 31.3911 25.0111 31.4466 25.0107 31.5031V32.1711C25.0117 32.2265 25.0264 32.2807 25.0534 32.3287C25.0804 32.3768 25.1189 32.4172 25.1653 32.4462L25.4514 32.6112L25.7376 32.7762C25.7849 32.807 25.84 32.8234 25.8962 32.8234C25.9524 32.8234 26.0073 32.807 26.0546 32.7762L26.3331 32.6112L26.6192 32.4462C26.6681 32.4194 26.709 32.3797 26.7376 32.3313C26.7661 32.2829 26.7815 32.2276 26.7817 32.1711V31.5031C26.7812 31.4457 26.7659 31.3894 26.7374 31.3398C26.7089 31.2901 26.6681 31.249 26.6192 31.2202L26.3331 31.0552L26.0546 30.8902Z" fill="#4F4F4F"/>
<path fill-rule="evenodd" clip-rule="evenodd" d="M37.3379 34.1909C37.2893 34.1641 37.2347 34.1501 37.1793 34.1501C37.124 34.1501 37.0696 34.1641 37.0209 34.1909L36.642 34.4188L36.2553 34.6389C36.2083 34.6691 36.1694 34.7109 36.1424 34.7603C36.1154 34.8097 36.1009 34.8653 36.1005 34.9218V35.8334C36.101 35.8908 36.1164 35.9471 36.1448 35.9967C36.1733 36.0464 36.2141 36.0876 36.263 36.1163L36.642 36.3363L37.0209 36.5642C37.0696 36.591 37.124 36.6051 37.1793 36.6051C37.2347 36.6051 37.2893 36.591 37.3379 36.5642L37.7246 36.3363L38.1035 36.1163C38.1525 36.0876 38.1933 36.0464 38.2217 35.9967C38.2502 35.9471 38.2654 35.8908 38.2659 35.8334V34.9375C38.2654 34.8801 38.2502 34.8237 38.2217 34.7741C38.1933 34.7245 38.1525 34.6833 38.1035 34.6546L37.7246 34.4345L37.3379 34.1909Z" fill="#4F4F4F"/>
<path fill-rule="evenodd" clip-rule="evenodd" d="M20.8421 26.2615C20.7934 26.2347 20.7391 26.2206 20.6837 26.2206C20.6283 26.2206 20.5738 26.2347 20.5251 26.2615L20.1384 26.4894L19.7595 26.7094C19.7114 26.7385 19.6718 26.78 19.6447 26.8297C19.6175 26.8794 19.6038 26.9355 19.6048 26.9923V27.8882C19.6038 27.945 19.6175 28.0011 19.6447 28.0508C19.6718 28.1005 19.7114 28.142 19.7595 28.1711L20.1384 28.3912L20.5251 28.619C20.5738 28.6459 20.6283 28.6599 20.6837 28.6599C20.7391 28.6599 20.7934 28.6459 20.8421 28.619L21.221 28.3912L21.6077 28.1711C21.6558 28.142 21.6955 28.1005 21.7227 28.0508C21.7499 28.0011 21.7636 27.945 21.7625 27.8882V26.9923C21.7636 26.9355 21.7499 26.8794 21.7227 26.8297C21.6955 26.78 21.6558 26.7385 21.6077 26.7094L21.221 26.4894L20.8421 26.2615Z" fill="#4F4F4F"/>
<path fill-rule="evenodd" clip-rule="evenodd" d="M34.3373 29.6641C34.2198 29.5951 34.0864 29.5588 33.9507 29.5588C33.8149 29.5588 33.6815 29.5951 33.564 29.6641L32.9452 30.0256L32.3265 30.395C32.2047 30.4645 32.1037 30.5662 32.0342 30.6894C31.9648 30.8125 31.9295 30.9524 31.9321 31.0943V32.5403C31.9295 32.6822 31.9648 32.8222 32.0342 32.9453C32.1037 33.0685 32.2047 33.1702 32.3265 33.2398L32.9452 33.6091L33.564 33.9706C33.6815 34.0396 33.8149 34.0759 33.9507 34.0759C34.0864 34.0759 34.2198 34.0396 34.3373 33.9706L34.9559 33.6091L35.5746 33.2398C35.6964 33.1702 35.7974 33.0685 35.8669 32.9453C35.9363 32.8222 35.9716 32.6822 35.969 32.5403V31.1179C35.9716 30.976 35.9363 30.8361 35.8669 30.7129C35.7974 30.5898 35.6964 30.488 35.5746 30.4185L34.9559 30.0492L34.3373 29.6641Z" fill="#4F4F4F"/>
<path fill-rule="evenodd" clip-rule="evenodd" d="M29.3335 24.7135C29.216 24.6445 29.0826 24.6082 28.9468 24.6082C28.8111 24.6082 28.6777 24.6445 28.5602 24.7135L27.4233 25.3815L26.2865 26.0495C26.1647 26.119 26.0639 26.2207 25.9944 26.3439C25.925 26.467 25.8896 26.607 25.8921 26.7489V29.4129C25.8896 29.5548 25.925 29.6948 25.9944 29.818C26.0639 29.9411 26.1647 30.0428 26.2865 30.1123L27.4233 30.7725L28.5602 31.4404C28.6777 31.5094 28.8111 31.5457 28.9468 31.5457C29.0826 31.5457 29.216 31.5094 29.3335 31.4404L30.4628 30.7725L31.5996 30.1123C31.7228 30.0438 31.8254 29.9426 31.8962 29.8193C31.9671 29.6961 32.0036 29.5556 32.0018 29.4129V26.7489C32.0036 26.6062 31.9671 26.4657 31.8962 26.3425C31.8254 26.2193 31.7228 26.1179 31.5996 26.0495L30.4628 25.3815L29.3335 24.7135Z" fill="#4F4F4F"/>
<path fill-rule="evenodd" clip-rule="evenodd" d="M37.7247 23.26C37.6071 23.1911 37.4738 23.1548 37.338 23.1548C37.2023 23.1548 37.0689 23.1911 36.9513 23.26L35.8145 23.928L34.6777 24.596C34.5545 24.6645 34.4519 24.7657 34.3811 24.889C34.3102 25.0122 34.2737 25.1527 34.2755 25.2954V27.9752C34.2737 28.1179 34.3102 28.2584 34.3811 28.3816C34.4519 28.5048 34.5545 28.6061 34.6777 28.6746L35.8145 29.3425L36.9513 30.0027C37.0689 30.0717 37.2023 30.108 37.338 30.108C37.4738 30.108 37.6071 30.0717 37.7247 30.0027L38.8615 29.3425L39.9983 28.6746C40.1201 28.6051 40.2212 28.5033 40.2906 28.3802C40.3601 28.257 40.3953 28.1171 40.3928 27.9752V25.3111C40.3953 25.1692 40.3601 25.0292 40.2906 24.9061C40.2212 24.7829 40.1201 24.6812 39.9983 24.6117L38.8615 23.9437L37.7247 23.26Z" fill="#4F4F4F"/>
<path fill-rule="evenodd" clip-rule="evenodd" d="M40.3926 15.1179C40.275 15.049 40.1417 15.0127 40.0059 15.0127C39.8702 15.0127 39.7368 15.049 39.6192 15.1179L38.4824 15.778L37.3456 16.446C37.2238 16.5156 37.1228 16.6173 37.0533 16.7405C36.9839 16.8636 36.9486 17.0035 36.9512 17.1454V19.8173C36.9533 19.9583 36.9906 20.0964 37.0596 20.2188C37.1285 20.3411 37.227 20.4436 37.3456 20.5168L38.4824 21.1769L39.6192 21.8449C39.7368 21.9138 39.8702 21.9501 40.0059 21.9501C40.1417 21.9501 40.275 21.9138 40.3926 21.8449L41.5294 21.1769L42.6663 20.5168C42.788 20.4472 42.8891 20.3455 42.9585 20.2224C43.028 20.0992 43.0632 19.9592 43.0607 19.8173V17.1454C43.0632 17.0035 43.028 16.8636 42.9585 16.7405C42.8891 16.6173 42.788 16.5156 42.6663 16.446L41.5294 15.778L40.3926 15.1179Z" fill="#4F4F4F"/>
<path fill-rule="evenodd" clip-rule="evenodd" d="M32.2261 17.5229C32.1086 17.4539 31.9752 17.4176 31.8395 17.4176C31.7037 17.4176 31.5703 17.4539 31.4528 17.5229L30.3237 18.1909L29.1869 18.8589C29.0637 18.9274 28.9611 19.0286 28.8902 19.1518C28.8194 19.2751 28.7829 19.4156 28.7847 19.5583V22.2223C28.7829 22.365 28.8194 22.5055 28.8902 22.6287C28.9611 22.7519 29.0637 22.8532 29.1869 22.9217L30.3237 23.5897L31.4528 24.2577C31.5703 24.3267 31.7037 24.363 31.8395 24.363C31.9752 24.363 32.1086 24.3267 32.2261 24.2577L33.3631 23.5897L34.5 22.9217C34.6217 22.8522 34.7226 22.7505 34.7921 22.6273C34.8615 22.5042 34.8969 22.3642 34.8944 22.2223V19.5583C34.8969 19.4163 34.8615 19.2764 34.7921 19.1532C34.7226 19.0301 34.6217 18.9284 34.5 18.8589L33.3631 18.1909L32.2261 17.5229Z" fill="#4F4F4F"/>
<path fill-rule="evenodd" clip-rule="evenodd" d="M17.1222 12.5248C17.0047 12.4558 16.8713 12.4195 16.7355 12.4195C16.5998 12.4195 16.4664 12.4558 16.3489 12.5248L15.7841 12.8549L15.2196 13.1849C15.0978 13.2544 14.9969 13.3562 14.9275 13.4793C14.8581 13.6025 14.8226 13.7424 14.8252 13.8843V15.2046C14.8273 15.3455 14.8648 15.4836 14.9337 15.606C15.0027 15.7283 15.101 15.8308 15.2196 15.904L15.7841 16.234L16.3489 16.5562C16.4664 16.6252 16.5998 16.6615 16.7355 16.6615C16.8713 16.6615 17.0047 16.6252 17.1222 16.5562L17.679 16.234L18.2436 15.904C18.3653 15.8345 18.4662 15.7327 18.5357 15.6096C18.6051 15.4864 18.6405 15.3465 18.638 15.2046V13.8843C18.6405 13.7424 18.6051 13.6025 18.5357 13.4793C18.4662 13.3562 18.3653 13.2544 18.2436 13.1849L17.679 12.8549L17.1222 12.5248Z" fill="#4F4F4F"/>
<path fill-rule="evenodd" clip-rule="evenodd" d="M14.6552 23.4953C14.5376 23.4264 14.4042 23.39 14.2685 23.39C14.1327 23.39 13.9994 23.4264 13.8818 23.4953L13.325 23.8254L12.7605 24.1555C12.6372 24.224 12.5347 24.3252 12.4638 24.4484C12.393 24.5717 12.3565 24.7122 12.3583 24.8549V26.1751C12.3565 26.3178 12.393 26.4583 12.4638 26.5815C12.5347 26.7047 12.6372 26.806 12.7605 26.8745L13.325 27.2046L13.8818 27.5346C13.9994 27.6036 14.1327 27.6399 14.2685 27.6399C14.4042 27.6399 14.5376 27.6036 14.6552 27.5346L15.2197 27.2046L15.7767 26.8745C15.8999 26.806 16.0023 26.7047 16.0731 26.5815C16.144 26.4583 16.1804 26.3178 16.1787 26.1751V24.8313C16.1804 24.6886 16.144 24.5481 16.0731 24.4249C16.0023 24.3017 15.8999 24.2004 15.7767 24.1319L15.2197 23.8018L14.6552 23.4953Z" fill="#4F4F4F"/>
<path fill-rule="evenodd" clip-rule="evenodd" d="M10.2083 20.2504C10.0908 20.1815 9.9574 20.1451 9.82165 20.1451C9.68589 20.1451 9.55253 20.1815 9.43496 20.2504L8.87042 20.5805L8.30588 20.9106C8.18726 20.9837 8.08882 21.0862 8.01984 21.2086C7.95085 21.3309 7.91358 21.469 7.91146 21.61V22.9302C7.90892 23.0721 7.94435 23.2121 8.01379 23.3352C8.08324 23.4584 8.18411 23.5601 8.30588 23.6296L8.87042 23.9597L9.43496 24.2897C9.55253 24.3587 9.68589 24.395 9.82165 24.395C9.9574 24.395 10.0908 24.3587 10.2083 24.2897L10.7651 23.9597L11.3299 23.6296C11.4516 23.5601 11.5525 23.4584 11.6219 23.3352C11.6914 23.2121 11.7266 23.0721 11.7241 22.9302V21.61C11.7266 21.4681 11.6914 21.3281 11.6219 21.205C11.5525 21.0818 11.4516 20.9801 11.3299 20.9106L10.7651 20.5805L10.2083 20.2504Z" fill="#4F4F4F"/>
<path fill-rule="evenodd" clip-rule="evenodd" d="M13.967 20.1166C13.9196 20.0858 13.8646 20.0694 13.8084 20.0694C13.7522 20.0694 13.6973 20.0858 13.65 20.1166L13.1626 20.3995L12.6832 20.6824C12.6358 20.7102 12.5964 20.7504 12.5692 20.7987C12.542 20.847 12.5279 20.9018 12.5284 20.9575V22.0891C12.5294 22.1444 12.5443 22.1986 12.5713 22.2467C12.5983 22.2948 12.6368 22.3351 12.6832 22.3641L13.1626 22.647L13.65 22.93C13.6986 22.9568 13.753 22.9708 13.8084 22.9708C13.8637 22.9708 13.9183 22.9568 13.967 22.93L14.4464 22.647L14.9259 22.3641C14.9748 22.3373 15.0157 22.2976 15.0443 22.2493C15.0729 22.2009 15.088 22.1455 15.0883 22.0891V20.9575C15.0889 20.9008 15.0741 20.8452 15.0454 20.7966C15.0168 20.7481 14.9754 20.7085 14.9259 20.6824L14.4464 20.3995L13.967 20.1166Z" fill="#4F4F4F"/>
<path fill-rule="evenodd" clip-rule="evenodd" d="M10.8192 12.7451C10.7016 12.6761 10.5683 12.6398 10.4325 12.6398C10.2967 12.6398 10.1634 12.6761 10.0458 12.7451L8.909 13.413L7.77218 14.081C7.65041 14.1505 7.54934 14.2523 7.4799 14.3754C7.41045 14.4986 7.37521 14.6385 7.37775 14.7804V17.4444C7.37521 17.5864 7.41045 17.7263 7.4799 17.8495C7.54934 17.9726 7.65041 18.0743 7.77218 18.1439L8.909 18.8119L10.0458 19.472C10.1634 19.5409 10.2967 19.5772 10.4325 19.5772C10.5683 19.5772 10.7016 19.5409 10.8192 19.472L11.956 18.8119L13.0928 18.1439C13.2146 18.0743 13.3157 17.9726 13.3851 17.8495C13.4546 17.7263 13.4898 17.5864 13.4873 17.4444V14.7804C13.4898 14.6385 13.4546 14.4986 13.3851 14.3754C13.3157 14.2523 13.2146 14.1505 13.0928 14.081L11.956 13.413L10.8192 12.7451Z" fill="#4F4F4F"/>
<path fill-rule="evenodd" clip-rule="evenodd" d="M4.53187 15.4012C4.4143 15.3323 4.28094 15.296 4.14519 15.296C4.00943 15.296 3.87607 15.3323 3.75851 15.4012L3.20171 15.7313L2.63698 16.0614C2.51637 16.1303 2.41634 16.2307 2.34697 16.3524C2.27759 16.474 2.2416 16.6123 2.24274 16.7529V18.0732C2.2402 18.2151 2.27544 18.355 2.34489 18.4781C2.41433 18.6013 2.51521 18.703 2.63698 18.7725L3.20171 19.1026L3.75851 19.4327C3.87607 19.5016 4.00943 19.538 4.14519 19.538C4.28094 19.538 4.4143 19.5016 4.53187 19.4327L5.09641 19.1026L5.66095 18.7725C5.78272 18.703 5.8836 18.6013 5.95304 18.4781C6.02248 18.355 6.05791 18.2151 6.05538 18.0732V16.7608C6.05791 16.6188 6.02248 16.4789 5.95304 16.3557C5.8836 16.2326 5.78272 16.1309 5.66095 16.0614L5.09641 15.7313L4.53187 15.4012Z" fill="#4F4F4F"/>
<path fill-rule="evenodd" clip-rule="evenodd" d="M5.55257 19.8643C5.435 19.7953 5.30164 19.759 5.16588 19.759C5.03013 19.759 4.89677 19.7953 4.7792 19.8643L4.21466 20.1943L3.65012 20.5244C3.52835 20.5939 3.42748 20.6957 3.35803 20.8188C3.28859 20.942 3.25316 21.0819 3.2557 21.2238V22.5362C3.25316 22.6781 3.28859 22.8181 3.35803 22.9412C3.42748 23.0644 3.52835 23.1661 3.65012 23.2356L4.21466 23.5657L4.7792 23.8957C4.89677 23.9647 5.03013 24.001 5.16588 24.001C5.30164 24.001 5.435 23.9647 5.55257 23.8957L6.10956 23.5657L6.6741 23.2356C6.79587 23.1661 6.89674 23.0644 6.96618 22.9412C7.03563 22.8181 7.07106 22.6781 7.06852 22.5362V21.2238C7.07106 21.0819 7.03563 20.942 6.96618 20.8188C6.89674 20.6957 6.79587 20.5939 6.6741 20.5244L6.10956 20.1943L5.55257 19.8643Z" fill="#4F4F4F"/>
<path fill-rule="evenodd" clip-rule="evenodd" d="M15.8616 4.98074C15.744 4.91177 15.6107 4.87546 15.4749 4.87546C15.3392 4.87546 15.2058 4.91177 15.0882 4.98074L13.9514 5.64875L12.8146 6.3167C12.6928 6.38623 12.5918 6.48797 12.5223 6.61111C12.4529 6.73426 12.4176 6.87422 12.4202 7.01613V9.68014C12.4176 9.82204 12.4529 9.96201 12.5223 10.0852C12.5918 10.2083 12.6928 10.31 12.8146 10.3796L13.9514 11.0476L15.0882 11.7155C15.2058 11.7845 15.3392 11.8208 15.4749 11.8208C15.6107 11.8208 15.744 11.7845 15.8616 11.7155L16.9984 11.0476L18.1275 10.3796C18.2507 10.3111 18.3533 10.2098 18.4241 10.0866C18.495 9.96337 18.5315 9.82283 18.5297 9.68014V7.01613C18.5315 6.87343 18.495 6.73294 18.4241 6.60972C18.3533 6.4865 18.2507 6.38519 18.1275 6.3167L16.9984 5.64875L15.8616 4.98074Z" fill="#4F4F4F"/>
<path fill-rule="evenodd" clip-rule="evenodd" d="M23.0308 3.11032C22.9132 3.04134 22.7799 3.00504 22.6441 3.00504C22.5084 3.00504 22.375 3.04134 22.2574 3.11032L21.1206 3.77832L19.9915 4.44628C19.8695 4.51414 19.7676 4.61418 19.6968 4.73589C19.626 4.8576 19.589 4.99647 19.5894 5.13784V7.80976C19.5876 7.95246 19.6241 8.09295 19.6949 8.21617C19.7658 8.33939 19.8683 8.44065 19.9915 8.50914L21.1206 9.16927L22.2574 9.83723C22.375 9.9062 22.5084 9.94251 22.6441 9.94251C22.7799 9.94251 22.9132 9.9062 23.0308 9.83723L24.1676 9.16927L25.3044 8.50914C25.4262 8.43961 25.5273 8.33787 25.5967 8.21473C25.6662 8.09158 25.7014 7.95167 25.6989 7.80976V5.13784C25.7 4.99725 25.664 4.85892 25.5946 4.73728C25.5253 4.61565 25.425 4.51516 25.3044 4.44628L24.1676 3.77832L23.0308 3.11032Z" fill="#4F4F4F"/>
<path fill-rule="evenodd" clip-rule="evenodd" d="M31.6307 3.61362C31.582 3.5868 31.5275 3.57275 31.4721 3.57275C31.4167 3.57275 31.3622 3.5868 31.3135 3.61362L30.8341 3.89652L30.3545 4.17941C30.3057 4.20622 30.2647 4.24594 30.2362 4.29434C30.2076 4.34273 30.1924 4.39805 30.1922 4.45449V5.58612C30.1924 5.64256 30.2076 5.69788 30.2362 5.74628C30.2647 5.79467 30.3057 5.83434 30.3545 5.86115L30.8341 6.14405L31.3135 6.42699C31.3608 6.4578 31.4159 6.47414 31.4721 6.47414C31.5283 6.47414 31.5834 6.4578 31.6307 6.42699L32.1101 6.14405L32.5897 5.86115C32.6385 5.83434 32.6793 5.79467 32.7079 5.74628C32.7364 5.69788 32.7518 5.64256 32.752 5.58612V4.39947C32.7518 4.34304 32.7364 4.28772 32.7079 4.23932C32.6793 4.19092 32.6385 4.15125 32.5897 4.12444L32.1101 3.8415L31.6307 3.61362Z" fill="#4F4F4F"/>
<path fill-rule="evenodd" clip-rule="evenodd" d="M35.7449 5.62476C35.6962 5.59793 35.6419 5.58389 35.5865 5.58389C35.5311 5.58389 35.4766 5.59793 35.4279 5.62476L35.0412 5.85264L34.6623 6.0727C34.6133 6.10142 34.5726 6.14261 34.5441 6.19223C34.5156 6.24185 34.5004 6.29816 34.4999 6.3556V7.25148C34.5004 7.30892 34.5156 7.36523 34.5441 7.41485C34.5726 7.46447 34.6133 7.50566 34.6623 7.53438L35.0412 7.75444L35.4279 7.98232C35.4766 8.00915 35.5311 8.02319 35.5865 8.02319C35.6419 8.02319 35.6962 8.00915 35.7449 7.98232L36.1239 7.75444L36.5028 7.53438C36.5518 7.50566 36.5925 7.46447 36.621 7.41485C36.6495 7.36523 36.6647 7.30892 36.6652 7.25148V6.3556C36.6647 6.29816 36.6495 6.24185 36.621 6.19223C36.5925 6.14261 36.5518 6.10142 36.5028 6.0727L36.1239 5.85264L35.7449 5.62476Z" fill="#4F4F4F"/>
<path fill-rule="evenodd" clip-rule="evenodd" d="M35.4046 12.6269C35.287 12.5579 35.1537 12.5216 35.0179 12.5216C34.8822 12.5216 34.7488 12.5579 34.6312 12.6269L34.0667 12.957L33.5099 13.287C33.3867 13.3555 33.2841 13.4568 33.2133 13.58C33.1424 13.7033 33.1059 13.8438 33.1077 13.9864V15.3067C33.1059 15.4494 33.1424 15.5899 33.2133 15.7131C33.2841 15.8363 33.3867 15.9376 33.5099 16.0061L34.0667 16.3283L34.6312 16.6583C34.7488 16.7273 34.8822 16.7636 35.0179 16.7636C35.1537 16.7636 35.287 16.7273 35.4046 16.6583L35.9691 16.3283L36.5259 16.0061C36.6491 15.9376 36.7517 15.8363 36.8226 15.7131C36.8934 15.5899 36.9299 15.4494 36.9281 15.3067V13.9864C36.9299 13.8438 36.8934 13.7033 36.8226 13.58C36.7517 13.4568 36.6491 13.3555 36.5259 13.287L35.9691 12.957L35.4046 12.6269Z" fill="#4F4F4F"/>
<path fill-rule="evenodd" clip-rule="evenodd" d="M20.1771 10.2542C20.1271 10.2273 20.0714 10.2133 20.0148 10.2133C19.9582 10.2133 19.9022 10.2273 19.8522 10.2542L19.4732 10.4821L19.0943 10.7021C19.0454 10.7308 19.0046 10.772 18.9761 10.8217C18.9476 10.8713 18.9324 10.9276 18.9319 10.985V11.8809C18.9314 11.9375 18.9463 11.9932 18.975 12.0417C19.0036 12.0903 19.0449 12.1298 19.0943 12.1559L19.4732 12.3838L19.8522 12.6039C19.901 12.6345 19.9574 12.6507 20.0148 12.6507C20.0721 12.6507 20.1283 12.6345 20.1771 12.6039L20.5561 12.3838L20.935 12.1559C20.9844 12.1298 21.0257 12.0903 21.0543 12.0417C21.083 11.9932 21.098 11.9375 21.0974 11.8809V10.985C21.0969 10.9276 21.0817 10.8713 21.0532 10.8217C21.0247 10.772 20.984 10.7308 20.935 10.7021L20.5561 10.4821L20.1771 10.2542Z" fill="#4F4F4F"/>
<path fill-rule="evenodd" clip-rule="evenodd" d="M10.0305 8.3836C9.91298 8.31463 9.77962 8.27832 9.64387 8.27832C9.50811 8.27832 9.37475 8.31463 9.25718 8.3836L8.71587 8.70578L8.16681 9.02014C8.04819 9.09328 7.94974 9.19582 7.88076 9.31815C7.81178 9.44047 7.77451 9.5786 7.77238 9.71957V11.0005C7.77451 11.1415 7.81178 11.2796 7.88076 11.4019C7.94974 11.5243 8.04819 11.6267 8.16681 11.6999L8.71587 12.0142L9.25718 12.3364C9.37475 12.4054 9.50811 12.4417 9.64387 12.4417C9.77962 12.4417 9.91298 12.4054 10.0305 12.3364L10.5719 12.0142L11.1134 11.6999C11.2351 11.6304 11.336 11.5286 11.4055 11.4055C11.4749 11.2823 11.5103 11.1424 11.5078 11.0005V9.71957C11.5103 9.57766 11.4749 9.4377 11.4055 9.31455C11.336 9.19141 11.2351 9.08967 11.1134 9.02014L10.5719 8.70578L10.0305 8.3836Z" fill="#4F4F4F"/>
<path fill-rule="evenodd" clip-rule="evenodd" d="M5.69976 10.7566C5.58219 10.6876 5.44883 10.6513 5.31308 10.6513C5.17732 10.6513 5.04396 10.6876 4.92639 10.7566L4.38489 11.0787L3.84357 11.3931C3.72036 11.4616 3.6178 11.5628 3.54695 11.6861C3.4761 11.8093 3.43963 11.9498 3.44141 12.0925V13.3656C3.43963 13.5083 3.4761 13.6488 3.54695 13.772C3.6178 13.8952 3.72036 13.9965 3.84357 14.065L4.38489 14.3872L4.92639 14.7094C5.04396 14.7784 5.17732 14.8147 5.31308 14.8147C5.44883 14.8147 5.58219 14.7784 5.69976 14.7094L6.24108 14.3872L6.79013 14.065C6.9119 13.9955 7.01297 13.8937 7.08241 13.7706C7.15186 13.6474 7.1871 13.5075 7.18456 13.3656V12.0925C7.1871 11.9506 7.15186 11.8106 7.08241 11.6875C7.01297 11.5643 6.9119 11.4626 6.79013 11.3931L6.24108 11.0787L5.69976 10.7566Z" fill="#4F4F4F"/>
<path fill-rule="evenodd" clip-rule="evenodd" d="M42.6356 28.4936C42.5869 28.4668 42.5324 28.4528 42.477 28.4528C42.4216 28.4528 42.3671 28.4668 42.3184 28.4936L42.0401 28.6665L41.7539 28.8316C41.7044 28.8577 41.6632 28.8972 41.6345 28.9458C41.6059 28.9943 41.5909 29.05 41.5915 29.1066V29.7746C41.5918 29.831 41.6069 29.8863 41.6355 29.9347C41.664 29.9831 41.705 30.0228 41.7539 30.0496L42.0401 30.2225L42.3184 30.3876C42.3671 30.4144 42.4216 30.4284 42.477 30.4284C42.5324 30.4284 42.5869 30.4144 42.6356 30.3876L42.9216 30.2225L43.2079 30.0496C43.2543 30.0207 43.2926 29.9802 43.3197 29.9322C43.3467 29.8841 43.3615 29.8299 43.3625 29.7746V29.1066C43.3631 29.05 43.3481 28.9943 43.3195 28.9458C43.2908 28.8972 43.2496 28.8577 43.2001 28.8316L42.9216 28.6665L42.6356 28.4936Z" fill="#4F4F4F"/>
<path fill-rule="evenodd" clip-rule="evenodd" d="M9.63606 5.59358C9.58874 5.56278 9.53385 5.54639 9.47765 5.54639C9.42145 5.54639 9.36637 5.56278 9.31905 5.59358L9.04056 5.75858L8.75451 5.92363C8.70556 5.95235 8.6648 5.99354 8.63632 6.04316C8.60783 6.09277 8.59264 6.14909 8.59214 6.20653V6.86666C8.59185 6.92427 8.60662 6.9809 8.63519 7.03066C8.66375 7.08041 8.70503 7.12146 8.75451 7.14956L9.04056 7.31461L9.31905 7.47961C9.36637 7.51041 9.42145 7.5268 9.47765 7.5268C9.53385 7.5268 9.58874 7.51041 9.63606 7.47961L9.9223 7.31461L10.2006 7.14956C10.2501 7.12146 10.2914 7.08041 10.3199 7.03066C10.3485 6.9809 10.3635 6.92427 10.3632 6.86666V6.20653C10.3627 6.14909 10.3473 6.09277 10.3188 6.04316C10.2903 5.99354 10.2496 5.95235 10.2006 5.92363L9.9223 5.75858L9.63606 5.59358Z" fill="#4F4F4F"/>
<path fill-rule="evenodd" clip-rule="evenodd" d="M19.396 16.4858C19.2784 16.4169 19.1451 16.3806 19.0093 16.3806C18.8736 16.3806 18.7402 16.4169 18.6226 16.4858L18.0658 16.8159L17.5013 17.1459C17.3781 17.2144 17.2755 17.3157 17.2047 17.4389C17.1338 17.5622 17.0973 17.7027 17.0991 17.8453V19.1656C17.0973 19.3083 17.1338 19.4488 17.2047 19.572C17.2755 19.6953 17.3781 19.7965 17.5013 19.865L18.0658 20.195L18.6226 20.5251C18.7402 20.5941 18.8736 20.6304 19.0093 20.6304C19.1451 20.6304 19.2784 20.5941 19.396 20.5251L19.9605 20.195L20.5173 19.865C20.6405 19.7965 20.7431 19.6953 20.8139 19.572C20.8848 19.4488 20.9213 19.3083 20.9195 19.1656V17.8453C20.9213 17.7027 20.8848 17.5622 20.8139 17.4389C20.7431 17.3157 20.6405 17.2144 20.5173 17.1459L19.9605 16.8159L19.396 16.4858Z" fill="#4F4F4F"/>
<path fill-rule="evenodd" clip-rule="evenodd" d="M33.4326 8.14782C33.315 8.07885 33.1817 8.04254 33.0459 8.04254C32.9101 8.04254 32.7768 8.07885 32.6592 8.14782L32.0947 8.47787L31.5379 8.80792C31.4147 8.8764 31.3121 8.97771 31.2413 9.10093C31.1704 9.22415 31.1339 9.36464 31.1357 9.50734V10.8276C31.1339 10.9703 31.1704 11.1108 31.2413 11.234C31.3121 11.3572 31.4147 11.4585 31.5379 11.527L32.0947 11.857L32.6592 12.1871C32.7768 12.2561 32.9101 12.2924 33.0459 12.2924C33.1817 12.2924 33.315 12.2561 33.4326 12.1871L33.9971 11.857L34.5539 11.527C34.6771 11.4585 34.7797 11.3572 34.8505 11.234C34.9214 11.1108 34.9579 10.9703 34.9561 10.8276V9.50734C34.9579 9.36464 34.9214 9.22415 34.8505 9.10093C34.7797 8.97771 34.6771 8.8764 34.5539 8.80792L33.9971 8.47787L33.4326 8.14782Z" fill="#4F4F4F"/>
<path fill-rule="evenodd" clip-rule="evenodd" d="M15.1734 17.3349C15.1234 17.308 15.0675 17.294 15.0109 17.294C14.9543 17.294 14.8985 17.308 14.8485 17.3349L14.3691 17.6178L13.8895 17.9007C13.84 17.9288 13.7989 17.9698 13.7704 18.0196C13.7418 18.0693 13.7269 18.126 13.7271 18.1836V19.3309C13.7276 19.3884 13.7428 19.4447 13.7713 19.4943C13.7998 19.5439 13.8406 19.5851 13.8895 19.6138L14.3691 19.8967L14.8485 20.1797C14.8985 20.2065 14.9543 20.2205 15.0109 20.2205C15.0675 20.2205 15.1234 20.2065 15.1734 20.1797L15.6528 19.8967L16.1324 19.6138C16.1804 19.5847 16.22 19.5432 16.2472 19.4935C16.2743 19.4438 16.2881 19.3878 16.287 19.3309V18.2072C16.2889 18.1502 16.2756 18.0938 16.2483 18.0439C16.2211 17.9941 16.181 17.9527 16.1324 17.9243L15.6528 17.6413L15.1734 17.3349Z" fill="#4F4F4F"/>
<path fill-rule="evenodd" clip-rule="evenodd" d="M1.03643 19.7542C0.988498 19.7251 0.933655 19.7098 0.877832 19.7098C0.822009 19.7098 0.767166 19.7251 0.719232 19.7542L0.440927 19.9192L0.154691 20.0843C0.106701 20.1115 0.0669651 20.1515 0.0397062 20.1999C0.0124473 20.2484 -0.00126096 20.3035 5.62069e-05 20.3593V21.0273C-0.00101055 21.0841 0.0127303 21.1402 0.039895 21.1899C0.0670598 21.2396 0.106644 21.2811 0.154691 21.3102L0.440927 21.4752L0.719232 21.6403C0.767906 21.6671 0.822461 21.6811 0.877832 21.6811C0.933203 21.6811 0.987758 21.6671 1.03643 21.6403L1.32248 21.4752L1.60871 21.3102C1.65573 21.28 1.69441 21.2382 1.72143 21.1888C1.74846 21.1393 1.76292 21.0838 1.76335 21.0273V20.3593C1.76234 20.304 1.74771 20.2498 1.72068 20.2017C1.69365 20.1536 1.65513 20.1133 1.60871 20.0843L1.32248 19.9192L1.03643 19.7542Z" fill="#4F4F4F"/>
<path d="M54.6614 32.4381H53.834C53.8013 32.1978 53.6763 31.9803 53.4866 31.8331C53.2968 31.6859 53.0576 31.6209 52.8208 31.6522V31.6522C52.2486 31.6522 51.8851 31.9116 51.8851 32.3438C51.8851 32.776 52.1558 32.886 52.6585 32.9882L53.254 33.1061C54.1588 33.2868 54.6691 33.6562 54.6691 34.4184C54.6691 35.3143 53.9422 35.9115 52.8441 35.9115C52.6079 35.94 52.3685 35.921 52.1396 35.8555C51.9107 35.7899 51.6969 35.6792 51.5101 35.5295C51.3234 35.3799 51.1675 35.1943 51.0513 34.9835C50.9352 34.7726 50.8611 34.5405 50.8333 34.3005C50.8333 34.3005 50.8333 34.3005 50.8333 34.2534H51.6453C51.6982 34.5386 51.8569 34.7923 52.0886 34.9619C52.3204 35.1316 52.6075 35.2043 52.8905 35.165C53.4705 35.165 53.8185 34.9214 53.8185 34.5206C53.8185 34.2613 53.656 34.0176 53.1224 33.9233L52.349 33.774C51.4364 33.5933 51.0189 33.1218 51.0189 32.4145C51.0189 31.5186 51.7149 30.9292 52.7744 30.9292C53.2206 30.8802 53.668 31.0107 54.0207 31.2927C54.3734 31.5747 54.6033 31.9859 54.6614 32.4381V32.4381Z" fill="#4F4F4F"/>
<path d="M62.4027 35.8328H61.5676V32.9251L60.2527 35.0705H59.7501L58.4122 32.8937V35.8328H57.5769V31.0547H58.1724L59.9822 34.0253L61.7995 31.0547H62.395L62.4027 35.8328Z" fill="#4F4F4F"/>
<path d="M66.4396 34.741L66.0067 35.8019H65.1094L67.1822 30.9925H67.9556L70.0049 35.8019H69.1311L68.6902 34.741H66.4396ZM67.5611 32.022L66.7878 33.963H68.3962L67.5611 32.022Z" fill="#4F4F4F"/>
<path d="M73.547 34.2618V35.8335H72.7195V31.0555H74.6451C74.8585 31.0292 75.0749 31.046 75.2818 31.1049C75.4888 31.1638 75.6822 31.2637 75.8511 31.3987C76.0199 31.5338 76.161 31.7015 76.2659 31.8921C76.3708 32.0827 76.4377 32.2924 76.4626 32.5094C76.4626 32.5565 76.4626 32.6037 76.4626 32.6587C76.4597 32.9907 76.3533 33.3133 76.1588 33.5801C75.9643 33.847 75.6915 34.0443 75.3798 34.1439L76.7409 35.8335H75.7355L74.4595 34.2618H73.547ZM74.6219 33.476C75.2019 33.476 75.6583 33.1695 75.6583 32.6901C75.6583 32.2107 75.2019 31.9042 74.6219 31.9042H73.547V33.476H74.6219Z" fill="#4F4F4F"/>
<path d="M81.3578 31.802V35.8335H80.5227V31.8335H78.8831V31.0476H82.9897V31.8335L81.3578 31.802Z" fill="#4F4F4F"/>
<path d="M86.5007 33.0508H88.8208V33.8367H86.5007V35.0469H89.0914V35.8328H85.6732V31.0547H89.0914V31.8406H86.5007V33.0508Z" fill="#4F4F4F"/>
<path d="M92.8036 34.2618V35.8335H91.9838V31.0555H93.9172C94.1306 31.0292 94.3469 31.046 94.5539 31.1049C94.7608 31.1638 94.9545 31.2637 95.1233 31.3987C95.2922 31.5338 95.433 31.7015 95.538 31.8921C95.6429 32.0827 95.7098 32.2924 95.7347 32.5094C95.7347 32.5565 95.7347 32.6037 95.7347 32.6587C95.7313 32.9917 95.6237 33.315 95.4277 33.582C95.2317 33.8489 94.9575 34.0457 94.6443 34.1439L96.0055 35.8335H95L93.7239 34.2618H92.8036ZM93.8787 33.476C94.4587 33.476 94.9149 33.1695 94.9149 32.6901C94.9149 32.2107 94.4587 31.9042 93.8787 31.9042H92.8036V33.476H93.8787Z" fill="#4F4F4F"/>
<path d="M104.404 31.802V35.8335H103.577V31.8335H101.914V31.0476H106.021V31.8335L104.404 31.802Z" fill="#4F4F4F"/>
<path d="M113.143 33.4123C113.143 33.905 112.999 34.3866 112.73 34.7963C112.461 35.206 112.078 35.5253 111.63 35.7138C111.182 35.9024 110.689 35.9517 110.213 35.8556C109.738 35.7595 109.301 35.5222 108.958 35.1738C108.615 34.8254 108.382 34.3815 108.287 33.8983C108.193 33.4151 108.241 32.9142 108.427 32.459C108.612 32.0038 108.927 31.6147 109.33 31.341C109.733 31.0672 110.207 30.9211 110.692 30.9211C111.342 30.9211 111.965 31.1836 112.425 31.6508C112.885 32.118 113.143 32.7516 113.143 33.4123V33.4123ZM112.308 33.4123C112.303 32.9659 112.124 32.5397 111.811 32.2268C111.497 31.9139 111.075 31.7398 110.636 31.7424C110.196 31.745 109.776 31.9241 109.466 32.2407C109.156 32.5573 108.983 32.9855 108.983 33.432C108.983 33.8784 109.156 34.3066 109.466 34.6232C109.776 34.9398 110.196 35.1189 110.636 35.1215C111.075 35.1241 111.497 34.9499 111.811 34.637C112.124 34.3241 112.303 33.8979 112.308 33.4516V33.4123Z" fill="#4F4F4F"/>
<path d="M120.761 35.833H120.104L120.049 35.0472C119.872 35.3251 119.625 35.5506 119.335 35.7009C119.044 35.8513 118.72 35.9213 118.394 35.9038C117.764 35.9145 117.155 35.6735 116.698 35.2326C116.241 34.7917 115.973 34.1862 115.951 33.5462V33.4755C115.934 32.8187 116.173 32.1818 116.616 31.7034C117.06 31.2251 117.671 30.944 118.317 30.9215H118.433C118.952 30.8996 119.463 31.0616 119.878 31.3798C120.292 31.698 120.585 32.1526 120.707 32.666H119.825C119.728 32.3788 119.54 32.1318 119.292 31.963C119.043 31.7941 118.747 31.7126 118.448 31.7309C118.025 31.7182 117.614 31.8765 117.305 32.171C116.997 32.4656 116.815 32.8725 116.801 33.3026V33.4597C116.801 33.8766 116.964 34.2764 117.254 34.5711C117.544 34.8659 117.938 35.0315 118.348 35.0315H118.425C118.758 35.047 119.085 34.9428 119.35 34.7372C119.614 34.5317 119.799 34.238 119.872 33.9077H118.325V33.1218H120.746V35.833H120.761Z" fill="#4F4F4F"/>
<path d="M124.79 33.0508H127.11V33.8367H124.79V35.0469H127.381V35.8328H123.963V31.0547H127.381V31.8406H124.79V33.0508Z" fill="#4F4F4F"/>
<path d="M132.23 31.802V35.8335H131.41V31.8335H129.755V31.0476H133.862V31.8335L132.23 31.802Z" fill="#4F4F4F"/>
<path d="M140.582 35.8328H139.762V33.8839H137.442V35.8328H136.615V31.0547H137.442V33.098H139.762V31.0547H140.582V35.8328Z" fill="#4F4F4F"/>
<path d="M144.449 33.0508H146.769V33.8367H144.449V35.0469H147.04V35.8328H143.676V31.0547H147.094V31.8406H144.449V33.0508Z" fill="#4F4F4F"/>
<path d="M150.783 34.2618V35.8335H149.948V31.0555H151.881C152.094 31.0292 152.311 31.046 152.518 31.1049C152.725 31.1638 152.918 31.2637 153.087 31.3987C153.256 31.5338 153.397 31.7015 153.502 31.8921C153.607 32.0827 153.674 32.2924 153.698 32.5094C153.702 32.5591 153.702 32.609 153.698 32.6587C153.705 32.9919 153.603 33.3179 153.409 33.5863C153.214 33.8548 152.938 34.0507 152.624 34.1439L153.985 35.8335H152.956L151.688 34.2618H150.783ZM151.858 33.476C152.438 33.476 152.894 33.1695 152.894 32.6901C152.894 32.2107 152.438 31.9042 151.858 31.9042H150.783V33.476H151.858Z" fill="#4F4F4F"/>
</g>
<path d="M57.5039 17.5552V14.4277H64.6816V20.8364C63.3076 21.7729 62.0908 22.4121 61.0312 22.7539C59.9785 23.0889 58.7275 23.2563 57.2783 23.2563C55.4941 23.2563 54.0381 22.9521 52.9102 22.3438C51.7891 21.7354 50.9175 20.8296 50.2954 19.6265C49.6802 18.4233 49.3726 17.0425 49.3726 15.4839C49.3726 13.8433 49.7109 12.418 50.3877 11.208C51.0645 9.99121 52.0557 9.06836 53.3613 8.43945C54.3799 7.9541 55.7505 7.71143 57.4731 7.71143C59.1343 7.71143 60.375 7.86182 61.1953 8.1626C62.0225 8.46338 62.7061 8.93164 63.2461 9.56738C63.793 10.1963 64.2031 10.9961 64.4766 11.9668L59.9956 12.7666C59.811 12.1992 59.4966 11.7651 59.0522 11.4644C58.6147 11.1636 58.0542 11.0132 57.3706 11.0132C56.3521 11.0132 55.5386 11.3687 54.9302 12.0796C54.3286 12.7837 54.0278 13.9014 54.0278 15.4326C54.0278 17.0596 54.332 18.2217 54.9404 18.9189C55.5557 19.6162 56.4102 19.9648 57.5039 19.9648C58.0234 19.9648 58.519 19.8896 58.9907 19.7393C59.4624 19.5889 60.0024 19.3325 60.6108 18.9702V17.5552H57.5039ZM67.7041 12.1104H71.6108V13.8945C71.9868 13.1221 72.373 12.5923 72.7695 12.3052C73.1729 12.0112 73.6685 11.8643 74.2563 11.8643C74.8716 11.8643 75.5449 12.0557 76.2764 12.4385L74.9844 15.4121C74.4922 15.207 74.1025 15.1045 73.8154 15.1045C73.2686 15.1045 72.8447 15.3301 72.5439 15.7812C72.1133 16.417 71.8979 17.6064 71.8979 19.3496V23H67.7041V12.1104ZM81.2983 15.6377L77.3096 15.2173C77.46 14.52 77.6753 13.9731 77.9556 13.5767C78.2427 13.1733 78.6528 12.8247 79.186 12.5308C79.5688 12.3188 80.0952 12.1548 80.7651 12.0386C81.4351 11.9224 82.1597 11.8643 82.939 11.8643C84.1899 11.8643 85.1948 11.936 85.9536 12.0796C86.7124 12.2163 87.3447 12.5068 87.8506 12.9512C88.2061 13.2588 88.4863 13.6963 88.6914 14.2637C88.8965 14.8242 88.999 15.3608 88.999 15.8735V20.6826C88.999 21.1953 89.0298 21.5986 89.0913 21.8926C89.1597 22.1797 89.3032 22.5488 89.522 23H85.605C85.4478 22.7197 85.3452 22.5078 85.2974 22.3643C85.2495 22.2139 85.2017 21.9814 85.1538 21.667C84.6069 22.1934 84.0635 22.5693 83.5234 22.7949C82.7852 23.0957 81.9272 23.2461 80.9497 23.2461C79.6509 23.2461 78.6631 22.9453 77.9863 22.3438C77.3164 21.7422 76.9814 21.0005 76.9814 20.1187C76.9814 19.2915 77.2241 18.6113 77.7095 18.0781C78.1948 17.5449 79.0903 17.1484 80.396 16.8887C81.9614 16.5742 82.9766 16.3555 83.4414 16.2324C83.9062 16.1025 84.3984 15.9351 84.918 15.73C84.918 15.2173 84.812 14.8584 84.6001 14.6533C84.3882 14.4482 84.0156 14.3457 83.4824 14.3457C82.7988 14.3457 82.2861 14.4551 81.9443 14.6738C81.6777 14.8447 81.4624 15.166 81.2983 15.6377ZM84.918 17.832C84.3438 18.0371 83.7456 18.2183 83.1235 18.3755C82.2759 18.6011 81.7393 18.8232 81.5137 19.042C81.2812 19.2676 81.165 19.5239 81.165 19.811C81.165 20.1392 81.2778 20.4092 81.5034 20.6211C81.7358 20.8262 82.0742 20.9287 82.5186 20.9287C82.9834 20.9287 83.4141 20.8159 83.8105 20.5903C84.2139 20.3647 84.4976 20.0913 84.6616 19.77C84.8325 19.4419 84.918 19.0181 84.918 18.4985V17.832ZM90.791 12.1104H95.2002L97.4458 19.3599L99.5273 12.1104H103.639L99.3223 23.7485C98.8301 25.0747 98.3276 25.9702 97.8149 26.4351C97.0903 27.0913 95.9863 27.4194 94.5029 27.4194C93.9014 27.4194 92.9717 27.3374 91.7139 27.1733L91.3857 24.2612C91.9873 24.4526 92.6572 24.5483 93.3955 24.5483C93.8877 24.5483 94.2842 24.4355 94.585 24.21C94.8926 23.9844 95.1523 23.5811 95.3643 23L90.791 12.1104ZM105.359 27.1426V12.1104H109.266V13.7202C109.806 13.0435 110.302 12.5854 110.753 12.3462C111.361 12.0249 112.035 11.8643 112.773 11.8643C114.229 11.8643 115.354 12.4214 116.146 13.5356C116.946 14.6499 117.346 16.0273 117.346 17.668C117.346 19.4795 116.912 20.8638 116.044 21.8208C115.176 22.771 114.079 23.2461 112.752 23.2461C112.11 23.2461 111.522 23.1367 110.989 22.918C110.462 22.6992 109.991 22.3745 109.574 21.9438V27.1426H105.359ZM109.543 17.5859C109.543 18.4473 109.724 19.0864 110.086 19.5034C110.449 19.9204 110.907 20.1289 111.46 20.1289C111.946 20.1289 112.353 19.9307 112.681 19.5342C113.009 19.1309 113.173 18.4507 113.173 17.4937C113.173 16.6118 113.002 15.9658 112.66 15.5557C112.318 15.1387 111.901 14.9302 111.409 14.9302C110.876 14.9302 110.432 15.1387 110.076 15.5557C109.721 15.9727 109.543 16.6494 109.543 17.5859ZM119.333 17.5859C119.333 15.9248 119.894 14.5576 121.015 13.4844C122.136 12.4043 123.65 11.8643 125.557 11.8643C127.738 11.8643 129.385 12.4966 130.5 13.7612C131.395 14.7798 131.843 16.0342 131.843 17.5244C131.843 19.1992 131.286 20.5732 130.171 21.6465C129.064 22.7129 127.529 23.2461 125.567 23.2461C123.817 23.2461 122.402 22.8018 121.322 21.9131C119.996 20.8125 119.333 19.3701 119.333 17.5859ZM123.517 17.5757C123.517 18.5464 123.711 19.2642 124.101 19.729C124.498 20.1938 124.993 20.4263 125.588 20.4263C126.189 20.4263 126.682 20.1973 127.064 19.7393C127.454 19.2812 127.649 18.5464 127.649 17.5347C127.649 16.5913 127.454 15.8906 127.064 15.4326C126.675 14.9678 126.193 14.7354 125.619 14.7354C125.01 14.7354 124.508 14.9712 124.111 15.4429C123.715 15.9077 123.517 16.6187 123.517 17.5757ZM133.84 17.5859C133.84 15.9248 134.4 14.5576 135.521 13.4844C136.643 12.4043 138.157 11.8643 140.064 11.8643C142.245 11.8643 143.892 12.4966 145.006 13.7612C145.902 14.7798 146.35 16.0342 146.35 17.5244C146.35 19.1992 145.792 20.5732 144.678 21.6465C143.571 22.7129 142.036 23.2461 140.074 23.2461C138.324 23.2461 136.909 22.8018 135.829 21.9131C134.503 20.8125 133.84 19.3701 133.84 17.5859ZM138.023 17.5757C138.023 18.5464 138.218 19.2642 138.608 19.729C139.004 20.1938 139.5 20.4263 140.095 20.4263C140.696 20.4263 141.188 20.1973 141.571 19.7393C141.961 19.2812 142.156 18.5464 142.156 17.5347C142.156 16.5913 141.961 15.8906 141.571 15.4326C141.182 14.9678 140.7 14.7354 140.125 14.7354C139.517 14.7354 139.015 14.9712 138.618 15.4429C138.222 15.9077 138.023 16.6187 138.023 17.5757ZM149.003 7.96777H153.187V23H149.003V7.96777Z" fill="#4F4F4F"/>
<defs>
<clipPath id="clip0_4_282">
<rect width="154" height="36" fill="white" transform="translate(0 3)"/>
</clipPath>
</defs>
</svg>
